<svg xmlns="http://www.w3.org/2000/svg" viewBox="0 0 300 300">
  <!-- Background shield shape -->
  <path d="M150 20 L270 70 L270 180 C270 230 220 270 150 280 C80 270 30 230 30 180 L30 70 Z" fill="#1e293b"/>
  
  <!-- Inner shield gradient -->
  <path d="M150 40 L250 80 L250 170 C250 210 210 250 150 260 C90 250 50 210 50 170 L50 80 Z" fill="#334155"/>
  
  <!-- Concentric sensing waves -->
  <path d="M150 110 Q190 110 190 150 Q190 190 150 190 Q110 190 110 150 Q110 110 150 110 Z" fill="none" stroke="#3b82f6" stroke-width="3" opacity="0.9">
    <animate attributeName="opacity" values="0.9;0.5;0.9" dur="3s" repeatCount="indefinite"/>
  </path>
  
  <path d="M150 90 Q205 90 205 150 Q205 210 150 210 Q95 210 95 150 Q95 90 150 90 Z" fill="none" stroke="#3b82f6" stroke-width="2.5" opacity="0.7">
    <animate attributeName="opacity" values="0.7;0.3;0.7" dur="3s" repeatCount="indefinite" begin="0.5s"/>
  </path>
  
  <path d="M150 70 Q220 70 220 150 Q220 230 150 230 Q80 230 80 150 Q80 70 150 70 Z" fill="none" stroke="#3b82f6" stroke-width="2" opacity="0.5">
    <animate attributeName="opacity" values="0.5;0.1;0.5" dur="3s" repeatCount="indefinite" begin="1s"/>
  </path>
  
  <!-- Central sensor "eye" -->
  <circle cx="150" cy="150" r="30" fill="#3b82f6"/>
  <circle cx="150" cy="150" r="20" fill="#0f172a"/>
  <circle cx="150" cy="150" r="10" fill="#3b82f6"/>
  <circle cx="150" cy="150" r="5" fill="#ffffff"/>
  
  <!-- Scan line -->
  <line x1="150" y1="150" x2="220" y2="150" stroke="#60a5fa" stroke-width="2">
    <animate attributeName="transform" attributeType="XML" type="rotate" from="0 150 150" to="360 150 150" dur="6s" repeatCount="indefinite"/>
  </line>
</svg>